<svg id="ScoreSaber" xmlns="http://www.w3.org/2000/svg" viewBox="0 0 50 50"><defs><style>.cls-1{fill:#221f1c}.cls-2{fill:#feec3e}.cls-3{fill:#eabd01}.cls-4{fill:#ffde18}.cls-5{fill:#fff}</style></defs><g id="Border"><path class="cls-1" d="M9 40h32v10H9zM9 0h32v10H9z"/><path class="cls-1" d="M4 4h10v10H4zM36 4h10v10H36zM40 9h10v32H40zM0 9h10v32H0zM38 38h8v8h-8zM4 36h10v10H4z"/></g><g id="Base_Colour"><path class="cls-2" d="M25 9h21v32H25zM9 4h32v21H9z"/><path class="cls-3" d="M4 9h21v32H4zM9 25h32v21H9z"/><path class="cls-4" d="M9 9h32v32H9z"/></g><g id="Arrow"><path class="cls-5" d="M18 14h14v3H18zM22 23h6v3h-6zM28 20h4v3h-4zM18 20h4v3h-4zM32 17h4v3h-4zM14 17h4v3h-4z"/></g></svg>
